# xmcd
#
# Track frame offsets:
#	150
#	14346
#	30409
#	45696
#	61073
#	80100
#	97626
#	112678
#	127491
#	145866
#	160893
#
# Disc length: 2338 seconds
#
# Revision: 0
# Processed by: cddbd v1.4PL0 Copyright (c) Steve Scherf et al.
# Submitted via: dBpowerAMP V4.0
#
DISCID=8509200b
DTITLE=Joe Nichols - Joe Nichols
DYEAR=1996
DGENRE=Country
TTITLE0=I Hate The Way i Love You
TTITLE1=I'm Not Tht Kind of Guy
TTITLE2=In Spite of Myself
TTITLE3=Independent Girl
TTITLE4=Leave The Past Behind
TTITLE5=Old Cheyene
TTITLE6=She Could Care Less
TTITLE7=Six of One, Half Dozen  (of The Other)
TTITLE8=The Impossible
TTITLE9=To Tell You The Truth, i Lied
TTITLE10=Wal-Mart Parking Lot
EXTD=
EXTT0=
EXTT1=
EXTT2=
EXTT3=
EXTT4=
EXTT5=
EXTT6=
EXTT7=
EXTT8=
EXTT9=
EXTT10=
PLAYORDER=
